<?xml version="1.0" standalone="no"?>
<!DOCTYPE svg PUBLIC "-//W3C//DTD SVG 20010904//EN"
 "http://www.w3.org/TR/2001/REC-SVG-20010904/DTD/svg10.dtd">
<svg version="1.0" xmlns="http://www.w3.org/2000/svg"
 width="60.000000pt" height="60.000000pt" viewBox="0 0 60.000000 60.000000"
 preserveAspectRatio="xMidYMid meet">

<g transform="translate(0.000000,60.000000) scale(0.100000,-0.100000)"
fill="#000000" stroke="none">
<path d="M332 548 c-7 -7 -12 -28 -12 -48 0 -43 15 -60 52 -60 21 0 28 -5 28
-20 0 -18 -7 -20 -60 -20 l-60 0 0 50 0 50 -80 0 -80 0 0 -48 c0 -36 -5 -50
-20 -59 -19 -13 -24 -31 -35 -135 l-6 -58 240 0 241 0 -6 73 c-9 96 -21 121
-62 125 -24 2 -32 8 -32 23 0 14 7 19 28 19 37 0 52 17 52 60 0 52 -13 60
-100 60 -46 0 -81 -5 -88 -12z m148 -48 c0 -18 -7 -20 -60 -20 -53 0 -60 2
-60 20 0 18 7 20 60 20 53 0 60 -2 60 -20z m-242 -77 c-3 -36 -5 -38 -38 -38
-33 0 -35 2 -38 38 l-3 37 41 0 41 0 -3 -37z m-42 -94 c10 -17 -13 -36 -27
-22 -12 12 -4 33 11 33 5 0 12 -5 16 -11z m80 0 c10 -17 -13 -36 -27 -22 -12
12 -4 33 11 33 5 0 12 -5 16 -11z m80 0 c10 -17 -13 -36 -27 -22 -12 12 -4 33
11 33 5 0 12 -5 16 -11z m80 0 c10 -17 -13 -36 -27 -22 -12 12 -4 33 11 33 5
0 12 -5 16 -11z m-200 -60 c10 -17 -13 -36 -27 -22 -12 12 -4 33 11 33 5 0 12
-5 16 -11z m80 0 c10 -17 -13 -36 -27 -22 -12 12 -4 33 11 33 5 0 12 -5 16
-11z m80 0 c10 -17 -13 -36 -27 -22 -12 12 -4 33 11 33 5 0 12 -5 16 -11z"/>
<path d="M60 132 c0 -50 7 -52 240 -52 233 0 240 2 240 52 l0 28 -240 0 -240
0 0 -28z m256 -3 c10 -17 -13 -36 -27 -22 -12 12 -4 33 11 33 5 0 12 -5 16
-11z"/>
</g>
</svg>
